<svg xmlns="http://www.w3.org/2000/svg" xmlns:xlink="http://www.w3.org/1999/xlink" width="500" zoomAndPan="magnify" viewBox="0 0 375 374.999991" height="500" preserveAspectRatio="xMidYMid meet" version="1.0"><defs><clipPath id="2f84bac696"><path d="M 152 134 L 242.761719 134 L 242.761719 185 L 152 185 Z M 152 134 " clip-rule="nonzero"/></clipPath><clipPath id="c133bc9184"><path d="M 207 114 L 242.761719 114 L 242.761719 125 L 207 125 Z M 207 114 " clip-rule="nonzero"/></clipPath><clipPath id="3193c16992"><path d="M 152 94.253906 L 242.761719 94.253906 L 242.761719 145 L 152 145 Z M 152 94.253906 " clip-rule="nonzero"/></clipPath><clipPath id="ff3f3f2ed6"><path d="M 132.511719 94.253906 L 242.761719 94.253906 L 242.761719 204.503906 L 132.511719 204.503906 Z M 132.511719 94.253906 " clip-rule="nonzero"/></clipPath></defs><path fill="#545454" d="M 167.589844 114.300781 L 187.636719 114.300781 L 187.636719 124.324219 L 167.589844 124.324219 Z M 167.589844 114.300781 " fill-opacity="1" fill-rule="evenodd"/><path fill="#545454" d="M 222.714844 154.394531 L 227.726562 154.394531 L 227.726562 164.414062 L 207.683594 164.414062 L 207.683594 154.394531 Z M 222.714844 154.394531 " fill-opacity="1" fill-rule="evenodd"/><path fill="#545454" d="M 152.558594 154.394531 L 187.636719 154.394531 L 187.636719 164.414062 L 152.558594 164.414062 Z M 152.558594 154.394531 " fill-opacity="1" fill-rule="evenodd"/><path fill="#545454" d="M 192.648438 114.300781 L 202.671875 114.300781 L 202.671875 124.324219 L 192.648438 124.324219 Z M 192.648438 114.300781 " fill-opacity="1" fill-rule="evenodd"/><g clip-path="url(#2f84bac696)"><path fill="#5651e5" d="M 207.683594 134.347656 L 242.761719 134.347656 L 242.761719 184.460938 L 152.558594 184.460938 L 152.558594 174.4375 L 232.738281 174.4375 L 232.738281 144.371094 L 207.683594 144.371094 Z M 207.683594 134.347656 " fill-opacity="1" fill-rule="evenodd"/></g><path fill="#545454" d="M 192.648438 129.335938 L 202.671875 129.335938 L 202.671875 164.414062 L 192.648438 164.414062 Z M 192.648438 129.335938 " fill-opacity="1" fill-rule="evenodd"/><g clip-path="url(#c133bc9184)"><path fill="#545454" d="M 207.683594 114.300781 L 242.761719 114.300781 L 242.761719 124.324219 L 207.683594 124.324219 Z M 207.683594 114.300781 " fill-opacity="1" fill-rule="evenodd"/></g><g clip-path="url(#3193c16992)"><path fill="#5651e5" d="M 152.558594 94.253906 L 242.761719 94.253906 L 242.761719 104.277344 L 162.582031 104.277344 L 162.582031 134.347656 L 187.636719 134.347656 L 187.636719 144.371094 L 152.558594 144.371094 Z M 152.558594 94.253906 " fill-opacity="1" fill-rule="evenodd"/></g><g clip-path="url(#ff3f3f2ed6)"><path fill="#5651e5" d="M 132.511719 94.253906 L 142.535156 94.253906 L 142.535156 194.480469 L 242.761719 194.480469 L 242.761719 204.503906 L 132.511719 204.503906 Z M 132.511719 94.253906 " fill-opacity="1" fill-rule="evenodd"/></g></svg>